<?xml version="1.0" encoding="utf-8"?>
<!-- Generator: Adobe Illustrator 24.3.0, SVG Export Plug-In . SVG Version: 6.00 Build 0)  -->
<svg version="1.1"
	 id="Layer_1" xmlns:cc="http://creativecommons.org/ns#" xmlns:dc="http://purl.org/dc/elements/1.1/" xmlns:rdf="http://www.w3.org/1999/02/22-rdf-syntax-ns#"
	 xmlns="http://www.w3.org/2000/svg" xmlns:xlink="http://www.w3.org/1999/xlink" x="0px" y="0px" viewBox="0 0 600.8 106.7"
	 style="enable-background:new 0 0 600.8 106.7;" xml:space="preserve">
<style type="text/css">
	.st0{fill:#472E93;}
	.st1{fill:#0098DA;}
	.st2{fill:url(#SVGID_1_);}
	.st3{fill:none;stroke:#FFFFFF;stroke-width:3.4079;stroke-miterlimit:10;}
</style>
<path class="st0" d="M198.6,79.4c0,5.3-1.5,9.5-4.7,12.5c-3.2,3-7.4,4.5-12.8,4.5h-27.6V6.1h27.6c5.3,0,9.6,1.5,12.8,4.6
	c3.2,3,4.7,7.2,4.7,12.5V79.4z M185,77.1V25.3c0-5.1-2.6-7.6-7.9-7.6h-10v67.1h9.7C182.2,84.8,185,82.3,185,77.1z M245.9,96.4h-12.7
	v-2c-3.2,0.5-6.3,0.9-9.5,1.4c-4.1,0.6-7.3,0.9-9.5,0.9c-4.1,0-6.2-2.4-6.2-7.2v-21c0-4.7,2.1-7.1,6.5-7.1h18.8V48h-12.6v8.2h-12
	V45.3c0-4.8,2.2-7.2,6.5-7.2h23.5c4.8,0,7.1,2.4,7.2,7.2V96.4z M233.3,85.9V70.3h-12.6v16.1L233.3,85.9z M280.5,96.4h-14.8
	c-4.7-0.1-7.1-2.4-7.1-7.2V49.4h-6.3V38.2h6.3V22.3h13.1v15.9h8.5v11.2h-8.5v35.8h8.9V96.4z M325.4,96.4h-12.7v-2
	c-3.2,0.5-6.4,0.9-9.5,1.4c-4.2,0.6-7.3,0.9-9.5,0.9c-4.1,0-6.2-2.4-6.2-7.2v-21c0.1-4.7,2.2-7.1,6.5-7.1h18.9V48h-12.7v8.2h-11.9
	V45.3c0-4.8,2.1-7.2,6.4-7.2h23.6c4.8,0,7.1,2.4,7.2,7.2V96.4z M312.8,85.9V70.3h-12.7v16.1L312.8,85.9z"/>
<path class="st1" d="M368.4,17.9h-14.8v77.9h-13.4V17.9h-14.8V6h43V17.9z M581,95.8h-14.8c-4.7-0.1-7.1-2.4-7.1-7.1V49H553V37.9h6.2
	V22.1h13.1v15.8h8.4V49h-8.4v35.6h8.8V95.8z M546.6,95.8h-13.2v-47l-12.3,0.3v46.7h-13.2V37.9h13.2V40c3-0.5,6.1-1,9.1-1.5
	c3.8-0.6,6.8-1,9.2-1c4.7,0,7.1,2.4,7.1,7.1V95.8z M498.5,95.8H486v-2c-3.1,0.4-6.3,0.9-9.4,1.4c-4.1,0.6-7.3,0.8-9.4,0.8
	c-4.1,0-6.2-2.4-6.2-7.1V67.9c0-4.7,2.2-7.1,6.4-7.1h18.7V47.6h-12.6v8.2h-11.9V45c0.1-4.7,2.2-7.1,6.4-7.1h23.4
	c4.7,0,7.1,2.4,7.1,7.1V95.8z M486.1,85.3V69.8h-12.6v16L486.1,85.3z M451.8,95.8h-13.2v-47l-12.3,0.3v46.7h-13.2V37.9h13.2V40
	c3.1-0.5,6.1-1,9.1-1.5c3.8-0.6,6.8-1,9.2-1c4.7,0,7.1,2.4,7.1,7.1V95.8z M403.6,88.6c0,4.7-2.4,7.1-7.1,7.1h-23.2
	c-4.7-0.1-7.1-2.4-7.1-7.1V45c0-4.7,2.4-7.1,7.1-7.1h23.2c4.7,0,7.1,2.4,7.1,7.1v21.3l-3.6,3.6h-21.3v16.2h12.4v-9.6h12.5V88.6z
	 M391.1,61.4V47.5h-12.4v13.9H391.1z"/>
<g>
	
		<linearGradient id="SVGID_1_" gradientUnits="userSpaceOnUse" x1="83.5136" y1="101.8327" x2="83.5136" y2="7.4299" gradientTransform="matrix(1 0 0 -1 0 108)">
		<stop  offset="0" style="stop-color:#7564FF"/>
		<stop  offset="1" style="stop-color:#9CE0FF"/>
	</linearGradient>
	<path class="st2" d="M115.1,100.6H52c-8.5,0-15.4-7-15.4-15.4V21.6c0-8.5,7-15.4,15.4-15.4h63.1c8.5,0,15.4,7,15.4,15.4v63.5
		C130.5,93.6,123.6,100.6,115.1,100.6z"/>
	<path class="st3" d="M107.9,51.2L107.9,51.2c0.1-1.1,0.2-2.2,0.2-3.3c0-10.3-8.3-18.6-18.6-18.6c-8.7,0-16,6-18,14.1
		c-1.7-1.5-3.9-2.4-6.4-2.3c-4.3,0.3-7.7,3.7-7.9,8c0,0.8,0,1.5,0.2,2.2c-6.6,1-11.7,6.9-11.2,13.9c0.5,6.9,6.4,12.2,13.3,12.2h48.4
		c6.9,0,12.8-5.3,13.3-12.2C121.5,57.6,115.4,51.2,107.9,51.2z"/>
</g>
</svg>
