<?xml version="1.0" encoding="utf-8"?>
<!-- Generator: Adobe Illustrator 24.3.0, SVG Export Plug-In . SVG Version: 6.00 Build 0)  -->
<svg version="1.1" id="Layer_1" xmlns="http://www.w3.org/2000/svg" xmlns:xlink="http://www.w3.org/1999/xlink" x="0px" y="0px"
	 viewBox="0 0 300 220" style="enable-background:new 0 0 300 220;" xml:space="preserve">
<style type="text/css">
	.st0{fill:#483592;}
	.st1{fill:none;stroke:#99D9F7;stroke-width:7;stroke-miterlimit:10;}
	.st2{fill:#99D9F7;}
	.st3{fill:#1A98D5;}
</style>
<g>
	<path class="st0" d="M57.43,52.85h33.29c2.52,0,4.56,1,6.11,3c1.55,2,2.33,4.7,2.33,8.09v67.05c0,3.4-0.78,6.1-2.33,8.09
		c-1.55,2-3.59,3-6.11,3H57.43V52.85z M70.14,65.21v64.5h12.52c2.46,0,3.69-1.66,3.69-4.97V70.18c0-3.31-1.23-4.97-3.69-4.97H70.14z
		"/>
	<path class="st0" d="M119.15,77.58h20.96c2.52,0,4.56,1,6.11,3c1.55,2,2.33,4.7,2.33,8.09v53.41h-9.71l-1.84-5.61l-3.01,3.31
		c-1.94,2.04-4.4,3.06-7.38,3.06h-7.47c-2.59,0-4.64-1-6.16-3c-1.52-2-2.28-4.69-2.28-8.09v-19.63c0-3.31,0.76-5.97,2.28-7.97
		c1.52-2,3.57-3,6.16-3h12.13c3.3,0,5.21,1.62,5.73,4.84V94.02c0-3.31-1.23-4.97-3.69-4.97h-7.38c-2.52,0-3.79,1.66-3.79,4.97v1.91
		h-11.45v-7.27c0-3.4,0.76-6.1,2.28-8.09C114.51,78.58,116.56,77.58,119.15,77.58z M133.32,112.76h-7.38
		c-2.52,0-3.79,1.66-3.79,4.97v9.05c0,1.45,0.31,2.57,0.92,3.38c0.61,0.81,1.44,1.21,2.47,1.21h3.11c1.68,0,3.2-0.64,4.56-1.91
		l3.79-4.21v-7.52C137.01,114.42,135.78,112.76,133.32,112.76z"/>
	<path class="st0" d="M173.5,78.34h6.5v11.6h-6.5v36.46c0,3.23,1.26,4.84,3.78,4.84h3.98v11.6h-10.77c-2.59,0-4.64-1-6.16-3
		c-1.52-2-2.28-4.69-2.28-8.09V89.94h-3.59v-11.6h3.59V61.13h11.45V78.34z"/>
	<path class="st0" d="M199.5,77.58h20.96c2.52,0,4.56,1,6.11,3c1.55,2,2.33,4.7,2.33,8.09v53.41h-9.71l-1.84-5.61l-3.01,3.31
		c-1.94,2.04-4.4,3.06-7.38,3.06h-7.47c-2.59,0-4.64-1-6.16-3c-1.52-2-2.28-4.69-2.28-8.09v-19.63c0-3.31,0.76-5.97,2.28-7.97
		c1.52-2,3.57-3,6.16-3h12.13c3.3,0,5.21,1.62,5.73,4.84V94.02c0-3.31-1.23-4.97-3.69-4.97h-7.38c-2.52,0-3.79,1.66-3.79,4.97v1.91
		h-11.45v-7.27c0-3.4,0.76-6.1,2.28-8.09C194.86,78.58,196.92,77.58,199.5,77.58z M213.67,112.76h-7.38c-2.52,0-3.79,1.66-3.79,4.97
		v9.05c0,1.45,0.31,2.57,0.92,3.38c0.61,0.81,1.44,1.21,2.47,1.21h3.11c1.68,0,3.2-0.64,4.56-1.91l3.79-4.21v-7.52
		C217.36,114.42,216.13,112.76,213.67,112.76z"/>
</g>
<g>
	<g>
		<path class="st1" d="M269.26,205.16c0,0,63.64-60.96-19.25-88.77c0,0,5.93-46.06-39.07-59.85"/>
		<g>
			<polygon class="st2" points="215.38,48.79 198.67,53.82 211.38,65.78 			"/>
		</g>
	</g>
</g>
<g>
	<g>
		<path class="st1" d="M198.78,50.87c0,0-44.92-82.35-127.27-19.79c0,0-37.43-4.28-32.62,38.5c0,0-8.9,6.41-13.63,22.43"/>
		<g>
			<polygon class="st2" points="17.45,87.75 22.84,104.34 34.52,91.38 			"/>
		</g>
	</g>
</g>
<g>
	<path class="st3" d="M38.52,135.77v72.76H26.14v-72.76H11.5v-11.71h41.65v11.71H38.52z"/>
	<path class="st3" d="M61.13,147.48h20.26c2.5,0,4.49,0.95,5.96,2.84c1.47,1.89,2.2,4.45,2.2,7.66v25.58H64.13v10.14
		c0,3.06,1.19,4.58,3.56,4.58h7.13c2.44,0,3.66-1.53,3.66-4.58v-1.93h11.07v7c0,3.22-0.74,5.77-2.2,7.66
		c-1.47,1.89-3.46,2.83-5.96,2.83H61.13c-2.44,0-4.41-0.94-5.91-2.83c-1.5-1.89-2.25-4.44-2.25-7.66v-40.79
		c0-3.22,0.75-5.77,2.25-7.66C56.72,148.43,58.69,147.48,61.13,147.48z M74.82,158.46h-7.13c-2.38,0-3.56,1.53-3.56,4.59v9.53h14.35
		v-9.53C78.48,159.99,77.26,158.46,74.82,158.46z"/>
	<path class="st3" d="M121.16,147.48h7.22c2.5,0,4.49,0.95,5.96,2.84c1.47,1.89,2.21,4.45,2.21,7.66v50.56h-11.07v-45.85
		c0-1.37-0.3-2.43-0.89-3.2c-0.59-0.76-1.39-1.15-2.39-1.15h-3c-1.63,0-3.1,0.6-4.41,1.81l-3.66,3.98v44.41H99.96V148.2h9.47
		l1.69,5.19l2.44-2.53C115.5,148.53,118.03,147.4,121.16,147.48z"/>
	<path class="st3" d="M155.78,147.48h20.26c2.44,0,4.41,0.95,5.91,2.84c1.5,1.89,2.25,4.45,2.25,7.66v50.56h-9.38l-1.78-5.31
		l-2.91,3.14c-1.88,1.93-4.25,2.9-7.13,2.9h-7.22c-2.5,0-4.49-0.94-5.96-2.83c-1.47-1.89-2.2-4.44-2.2-7.66v-18.58
		c0-3.14,0.73-5.65,2.2-7.54c1.47-1.89,3.45-2.83,5.96-2.83h11.73c3.19,0,5.03,1.53,5.53,4.58v-11.34c0-3.14-1.19-4.71-3.56-4.71
		h-7.13c-2.44,0-3.66,1.57-3.66,4.71v1.81h-11.07v-6.88c0-3.22,0.73-5.77,2.2-7.66C151.29,148.43,153.27,147.48,155.78,147.48z
		 M169.47,180.78h-7.13c-2.44,0-3.66,1.57-3.66,4.71v8.57c0,1.37,0.3,2.43,0.89,3.2c0.59,0.77,1.39,1.15,2.39,1.15h3
		c1.62,0,3.1-0.6,4.41-1.81l3.66-3.98v-7.12C173.04,182.35,171.85,180.78,169.47,180.78z"/>
	<path class="st3" d="M216.56,147.48h7.22c2.5,0,4.49,0.95,5.96,2.84c1.47,1.89,2.21,4.45,2.21,7.66v50.56h-11.07v-45.85
		c0-1.37-0.3-2.43-0.89-3.2c-0.59-0.76-1.39-1.15-2.39-1.15h-3c-1.63,0-3.1,0.6-4.41,1.81l-3.66,3.98v44.41h-11.16V148.2h9.47
		l1.69,5.19l2.44-2.53C210.9,148.53,213.43,147.4,216.56,147.48z"/>
	<path class="st3" d="M255.96,148.2h6.29v10.98h-6.29v34.51c0,3.06,1.22,4.58,3.66,4.58h3.85v10.98h-10.41
		c-2.5,0-4.49-0.94-5.96-2.83c-1.47-1.89-2.2-4.44-2.2-7.66v-39.58h-3.47V148.2h3.47v-16.29h11.07V148.2z"/>
</g>
</svg>
